<?xml version="1.0" encoding="iso-8859-1"?>
<!-- Uploaded to: SVG Repo, www.svgrepo.com, Generator: SVG Repo Mixer Tools -->
<svg fill="#000000" height="800px" width="800px" version="1.1" id="Layer_1" xmlns="http://www.w3.org/2000/svg" xmlns:xlink="http://www.w3.org/1999/xlink" 
	 viewBox="0 0 496.385 496.385" xml:space="preserve">
<g>
	<g>
		<path d="M213.096,0H110.423L0,110.418v102.678l283.289,283.288l213.096-213.096L213.096,0z M19.692,204.942v-86.37l98.885-98.88
			h86.365l263.596,263.596l-185.25,185.25L19.692,204.942z"/>
	</g>
</g>
<g>
	<g>
		<path d="M185.346,115.663c0,0,0,0,0-0.005c-9.308-9.303-21.673-14.428-34.837-14.428s-25.538,5.125-34.846,14.433
			c-19.211,19.207-19.211,50.466,0,69.683c9.308,9.308,21.683,14.433,34.846,14.433s25.529-5.125,34.837-14.433
			c9.308-9.308,14.433-21.683,14.433-34.841C199.779,137.341,194.654,124.966,185.346,115.663z M171.423,171.423
			c-11.173,11.173-30.663,11.173-41.837,0c-11.529-11.538-11.529-30.303,0-41.837c5.587-5.587,13.019-8.663,20.923-8.663
			c7.904,0,15.327,3.077,20.913,8.663v0.005c5.587,5.582,8.663,13.01,8.663,20.913C180.087,158.404,177.01,165.832,171.423,171.423z
			"/>
	</g>
</g>
</svg>